<?xml version="1.0" encoding="utf-8" ?><svg xmlns="http://www.w3.org/2000/svg" xmlns:xlink="http://www.w3.org/1999/xlink" width="512" height="512" viewBox="0 0 512 512"><path fill="#4F5D70" d="M285.627 92.8066C287.776 91.4034 289.932 89.28 292.025 87.697C354.167 40.6945 438.631 85.7954 439.096 162.25L438.998 348.023C439.015 360.941 441.33 373.426 431.47 383.451C423.696 391.355 415.057 390.764 404.89 390.757L307.306 390.744C312.009 400.35 318.708 411.162 322.917 420.969C324.453 421.75 335.288 420.703 338.477 421.324C346.549 422.896 350.662 437.029 334.997 438.767L173.625 438.831C163.446 438.879 162.145 421.03 174.897 421.014C179.768 421.008 184.408 420.835 189.161 420.969C193.296 410.609 199.278 400.85 204.001 390.744L108.791 390.755C88.0281 390.771 73.2241 386.601 73.1014 362.465L73.0747 124.906C73.0283 109.651 77.6017 95.0357 95.7322 93.2058C102.367 92.5361 109.566 92.8076 116.259 92.8104L285.627 92.8066ZM208.563 420.969C211.35 420.716 214.417 420.895 217.244 420.927L279.776 420.967C286.527 420.968 297.087 421.355 303.445 420.969C298.715 410.74 293.178 400.701 287.908 390.744L223.709 390.744C218.566 400.285 212.378 410.871 208.563 420.969ZM341.143 86.6385C300.409 90.2135 270.29 126.14 273.878 166.873C277.466 207.606 313.402 237.713 354.134 234.111C394.847 230.512 424.938 194.596 421.351 153.881C417.764 113.167 381.858 83.0652 341.143 86.6385ZM271.644 109.91L116.387 109.907C111.359 109.906 102.989 109.638 98.1644 109.91C86.1808 112.168 89.9974 136.477 89.9984 146.337L89.998 332.288L121.555 332.283C124.212 332.285 127.188 332.431 130.035 332.323C150.629 331.539 145.322 349.265 136.119 349.465C130.644 349.867 125.133 349.742 119.641 349.74L89.998 349.734C89.9063 374.507 87.4504 373.58 111.874 373.539L388.776 373.534C397.756 373.533 406.85 373.765 415.791 373.143C424.06 372.567 421.727 355.045 421.747 349.734L258.125 349.734L244.001 349.753C237.023 349.751 226.029 350.853 225.603 341.074C225.07 328.854 246.789 332.278 254.897 332.28L421.747 332.288L421.747 213.29C408.59 232.725 387.422 245.882 364.732 250.214C291.302 264.232 232.877 188.781 265.108 121.38C267.106 117.202 269.601 113.805 271.644 109.91Z"/><path fill="#8C9EB1" d="M322.917 420.969C324.453 421.75 335.288 420.703 338.477 421.324C346.549 422.896 350.662 437.029 334.997 438.767L173.625 438.831C163.446 438.879 162.145 421.03 174.897 421.014C179.768 421.008 184.408 420.835 189.161 420.969L208.563 420.969C211.35 420.716 214.417 420.895 217.244 420.927L279.776 420.967C286.527 420.968 297.087 421.355 303.445 420.969C305.737 421.097 321.347 421.308 322.917 420.969Z"/><path fill="#3696D7" d="M160.125 231.098L213.927 231.092C231.516 231.076 247.19 227.9 260.846 240.509C272.787 251.533 270.801 265.553 270.774 280.317L270.909 302.524C270.975 314.775 262.106 313.781 252.414 313.769L234.375 313.741L141.486 313.747C135.612 313.755 123.695 315.255 123.296 306.393C122.652 292.075 123.176 277.381 123.043 263.041C122.853 242.609 140.772 230.388 160.125 231.098ZM139.953 296.297L160.125 296.297L222.813 296.303C232.859 296.304 244.077 296.549 254.039 296.297L254.052 274.859C254.058 260.078 253.971 247.687 235.412 247.886L234.375 247.9L164.782 247.897C139.823 247.909 139.96 254.902 139.94 275.867L139.953 296.297Z"/><path fill="#3696D7" d="M194.756 143.764L194.99 143.734C212.83 141.642 228.316 155.715 230.358 173.066C232.677 192.77 220.633 222.248 198.463 224.554C160.603 226.531 144.409 146.076 194.756 143.764ZM199.274 207.798C218.709 198.1 222.046 157.87 194.756 160.29C164.299 165.613 184.225 212.925 199.274 207.798Z"/><path fill="#4F5D70" d="M198.463 332.288C215.913 332.507 211.027 348.099 203.609 349.188C198.965 349.87 194.398 349.744 189.761 349.747L169.405 349.734C163.241 349.477 158.146 348.056 157.845 340.895C157.406 330.456 171.621 332.276 178.098 332.274L198.463 332.288Z"/><path fill="#3696D7" d="M352.871 125.581C360.137 124.964 382.53 150.448 388.576 156.217C390.781 158.321 391.461 162.696 389.146 165.047L364.723 189.508C360.95 193.279 352.798 202.429 347.342 194.337C340.003 183.452 360.189 174.231 360.873 169.898C342.427 169.439 323.719 170.356 305.255 169.786C295.36 169.48 293.198 155.147 302.661 153.121C306.048 152.396 312.972 152.755 316.647 152.764L350.268 152.789C354.66 152.76 357.408 153.248 361.965 152.759C357.449 148.755 351.805 143.611 347.87 139.1C343.713 134.334 346.059 126.897 352.871 125.581Z"/></svg>